<?xml version="1.0" encoding="UTF-8" standalone="no"?>
<!-- Created with Inkscape (http://www.inkscape.org/) -->

<svg
   xmlns:dc="http://purl.org/dc/elements/1.1/"
   xmlns:cc="http://creativecommons.org/ns#"
   xmlns:rdf="http://www.w3.org/1999/02/22-rdf-syntax-ns#"
   xmlns:svg="http://www.w3.org/2000/svg"
   xmlns="http://www.w3.org/2000/svg"
   xmlns:xlink="http://www.w3.org/1999/xlink"
   xmlns:sodipodi="http://sodipodi.sourceforge.net/DTD/sodipodi-0.dtd"
   xmlns:inkscape="http://www.inkscape.org/namespaces/inkscape"
   id="svg3140"
   height="90"
   width="90"
   version="1.1"
   inkscape:version="0.48.3.1 r9886"
   sodipodi:docname="beru.svg">
  <sodipodi:namedview
     pagecolor="#ffffff"
     bordercolor="#666666"
     borderopacity="1"
     objecttolerance="10"
     gridtolerance="10"
     guidetolerance="10"
     inkscape:pageopacity="0"
     inkscape:pageshadow="2"
     inkscape:window-width="1920"
     inkscape:window-height="1025"
     id="namedview24"
     showgrid="false"
     showguides="true"
     inkscape:guide-bbox="true"
     inkscape:zoom="8"
     inkscape:cx="54.482735"
     inkscape:cy="50.042697"
     inkscape:window-x="0"
     inkscape:window-y="27"
     inkscape:window-maximized="1"
     inkscape:current-layer="text4697">
    <inkscape:grid
       type="xygrid"
       id="grid3816" />
  </sodipodi:namedview>
  <defs
     id="defs3142">
    <linearGradient
       id="linearGradient3913">
      <stop
         style="stop-color:#c75141;stop-opacity:1;"
         offset="0"
         id="stop3915" />
      <stop
         style="stop-color:#61194a;stop-opacity:1;"
         offset="1"
         id="stop3917" />
    </linearGradient>
    <linearGradient
       id="linearGradient3880">
      <stop
         style="stop-color:#f37320;stop-opacity:1;"
         offset="0"
         id="stop3882" />
      <stop
         style="stop-color:#851f73;stop-opacity:1;"
         offset="1"
         id="stop3884" />
    </linearGradient>
    <clipPath
       id="clipPath3776-0"
       clipPathUnits="userSpaceOnUse">
      <path
         id="path3778-8"
         style="color:#000000;fill:#f0f"
         d="m-9.1579-12.868v28.211h34.737v42.316h-34.737v42.316h104.21v-112.84l-104.21-0.003z" />
    </clipPath>
    <linearGradient
       inkscape:collect="always"
       xlink:href="#linearGradient3880"
       id="linearGradient3894"
       x1="68.637848"
       y1="14.63744"
       x2="25.96303"
       y2="63.311653"
       gradientUnits="userSpaceOnUse" />
    <linearGradient
       inkscape:collect="always"
       xlink:href="#linearGradient3880"
       id="linearGradient3904"
       gradientUnits="userSpaceOnUse"
       x1="68.637848"
       y1="14.63744"
       x2="25.96303"
       y2="63.311653"
       gradientTransform="matrix(0.84285353,0,0,1,2.3845713,-5.8543378)" />
    <linearGradient
       inkscape:collect="always"
       xlink:href="#linearGradient3913"
       id="linearGradient3927"
       x1="17.195463"
       y1="6.2328916"
       x2="24.725559"
       y2="6.3630953"
       gradientUnits="userSpaceOnUse" />
  </defs>
  <metadata
     id="metadata3145">
    <rdf:RDF>
      <cc:Work
         rdf:about="">
        <dc:format>image/svg+xml</dc:format>
        <dc:type
           rdf:resource="http://purl.org/dc/dcmitype/StillImage" />
        <dc:title />
      </cc:Work>
    </rdf:RDF>
  </metadata>
  <g
     id="g3016">
    <g
       id="g4753"
       transform="matrix(1.1135455,0,0,1.1135455,-6.8911313,-6.1354552)">
      <rect
         style="fill:#efebe8;fill-opacity:1;fill-rule:nonzero;stroke:none"
         id="rect3911"
         width="48.083263"
         height="61.695065"
         x="19.975767"
         y="7.6220603"
         transform="matrix(0.89803246,0,0,0.89803246,6.1884596,5.5098379)"
         ry="2.9775548" />
      <path
         style="fill:url(#linearGradient3927);fill-opacity:1;fill-rule:nonzero;stroke:none"
         d="m 18.6875,5 c -0.648752,0 -1.241539,0.182033 -1.75,0.5 L 16.84375,5.5625 C 16.83176,5.57058 16.82438,5.585521 16.8125,5.59375 l -3.007812,2.296875 1.515625,0.125 C 15.309105,8.1272862 15.375,8.1976958 15.375,8.3125 l 0,60.1875 c 0,1.836867 1.475633,3.3125 3.3125,3.3125 l 36.78125,0 0,-5.5625 -31.1875,0 c -1.850713,0 -3.34375,-1.493037 -3.34375,-3.34375 l 0,-49 c 0,-1.850713 1.493037,-3.34375 3.34375,-3.34375 l 37.875,0 c 1.850713,0 3.34375,1.493037 3.34375,3.34375 l 0,49 c 0,1.850713 -1.493037,3.34375 -3.34375,3.34375 l -6.46875,0 0,5.5625 12.0625,0 c 1.836867,0 3.3125,-1.475633 3.3125,-3.3125 l 0,-60.1875 C 71.0625,6.4756332 69.586867,5 67.75,5 z"
         transform="matrix(0.89803246,0,0,0.89803246,6.1884596,5.5098379)"
         id="rect4690"
         inkscape:connector-curvature="0"
         sodipodi:nodetypes="scccccsssccssssssssccsssss" />
      <g
         id="g3906">
        <rect
           transform="matrix(0.92729743,0.37432537,0,1,0,0)"
           ry="2.9775548"
           y="4.1456623"
           x="19.241642"
           height="60"
           width="42.142677"
           id="rect4695"
           style="fill:url(#linearGradient3904);fill-opacity:1;fill-rule:nonzero;stroke:none" />
        <g
           transform="matrix(0.88406782,0.35687472,0,1.1311349,0,0)"
           style="font-size:35.36271286px;font-style:normal;font-variant:normal;font-weight:bold;font-stretch:normal;text-align:start;line-height:100%;letter-spacing:0px;word-spacing:0px;writing-mode:lr-tb;text-anchor:start;fill:#ffffff;fill-opacity:1;stroke:none;font-family:URW Bookman L;-inkscape-font-specification:URW Bookman L Bold"
           id="text4697">
          <path
             d="m 28.553764,11.626843 0,2.899743 0.707254,0.07072 c 1.98031,0.212176 2.404665,0.707257 2.404665,2.970468 l 0,12.200136 c 0,2.263211 -0.424355,2.758292 -2.404665,2.970468 l -0.707254,0.07073 0,2.899743 14.145085,0 c 3.288729,0 4.809331,-0.282903 6.365289,-1.16697 2.051035,-1.202331 3.288732,-3.430185 3.288732,-5.905573 0,-2.864377 -1.591325,-4.95078 -4.455702,-5.87021 2.121761,-1.025518 3.394821,-2.935107 3.394821,-5.092231 0,-1.59132 -0.707256,-3.147282 -1.94495,-4.243525 -1.414507,-1.273057 -3.607,-1.803499 -7.355444,-1.803499 l -13.437831,0 m 9.300394,9.583296 0,-4.384977 c 0,-0.707253 0.03536,-1.025519 0.176813,-1.237695 0.212176,-0.388989 1.237697,-0.601166 2.722929,-0.601166 2.864377,0 4.526427,1.202334 4.526427,3.218007 0,1.909585 -1.697413,3.005831 -4.597152,3.005831 l -2.829017,0 m 0,3.253369 2.935105,0 c 3.606993,0 5.127593,1.13161 5.127593,3.819173 0,2.687564 -1.874227,4.278888 -4.986142,4.278888 -1.379145,0 -2.440028,-0.247539 -2.793655,-0.636528 -0.212176,-0.247539 -0.282901,-0.530442 -0.282901,-1.16697 l 0,-6.294563"
             style=""
             id="path3011" />
        </g>
      </g>
    </g>
  </g>
  <rect
     id="rect2990"
     style="color:#000000;fill:none"
     height="90"
     width="90"
     y="-1.4648437e-05"
     x="0" />
  <g
     id="layer2"
     style="display:none">
    <path
       id="path3214-7"
       d="m4.7647 48h17.471c3.1765 0 4.7647 0 4.7647-3s-1.5882-3-4.7647-3h-17.471c-3.1768 0-4.765 0-4.765 3s1.5882 3 4.7647 3z"
       style="color:#000000;display:inline;fill:#808080" />
    <path
       id="path3216-2"
       style="color:#000000;display:inline;fill:#808080"
       d="m13.765 39h17.471c3.176 0 4.764 0 4.764-3s-1.588-3-4.765-3h-17.47c-3.177 0-4.765 0-4.765 3s1.588 3 4.765 3z" />
    <path
       id="path3218-4"
       d="m4.7647 30h17.471c3.1765 0 4.7647 0 4.7647-3s-1.5882-3-4.7647-3h-17.471c-3.1768 0-4.765 0-4.765 3s1.5882 3 4.7647 3z"
       style="color:#000000;display:inline;fill:#808080" />
    <rect
       id="rect2990-7"
       style="color:#000000;display:inline;fill:none"
       height="90"
       width="90"
       y="0.000003"
       x="0" />
    <path
       id="path2995-5"
       style="stroke-width:10.5;color:#000000;stroke:#808080;display:inline;fill:none"
       d="m69 36.5a33 33.5 0 1 1 -66 0 33 33.5 0 1 1 66 0z"
       clip-path="url(#clipPath3776-0)"
       transform="matrix(.86364 0 0 .85075 10.909 4.9478)" />
    <path
       id="path3765-1"
       style="block-progression:tb;text-indent:0;color:#000000;text-transform:none;display:inline;fill:#808080"
       d="m63.05 53.083-3.967 3.967 19.601 19.601 3.967-3.967-19.601-19.601z" />
    <path
       id="path3767-9"
       style="block-progression:tb;text-indent:0;color:#000000;text-transform:none;display:inline;fill:#808080"
       d="m71.329 59.841c-2.1681 0.0112-4.263 1.4327-5.0758 3.4441-0.8127 2.0114-0.29378 4.4904 1.2572 6.0063l11.872 11.881c3.7566 3.9893 4.5666 3.4509 7.9001 0.11742s3.8779-3.91-0.11734-7.9053l-11.872-11.88c-1.028-1.055-2.492-1.669-3.964-1.663z" />
  </g>
</svg>
