<?xml version="1.0" encoding="UTF-8" standalone="no"?>
<!-- Created with Inkscape (http://www.inkscape.org/) -->

<svg
   xmlns:dc="http://purl.org/dc/elements/1.1/"
   xmlns:cc="http://creativecommons.org/ns#"
   xmlns:rdf="http://www.w3.org/1999/02/22-rdf-syntax-ns#"
   xmlns:svg="http://www.w3.org/2000/svg"
   xmlns="http://www.w3.org/2000/svg"
   xmlns:sodipodi="http://sodipodi.sourceforge.net/DTD/sodipodi-0.dtd"
   xmlns:inkscape="http://www.inkscape.org/namespaces/inkscape"
   id="svg3140"
   height="90"
   width="90"
   version="1.1"
   inkscape:version="0.48.3.1 r9886"
   sodipodi:docname="default_cover.svg">
  <sodipodi:namedview
     pagecolor="#ffffff"
     bordercolor="#666666"
     borderopacity="1"
     objecttolerance="10"
     gridtolerance="10"
     guidetolerance="10"
     inkscape:pageopacity="0"
     inkscape:pageshadow="2"
     inkscape:window-width="1920"
     inkscape:window-height="1025"
     id="namedview24"
     showgrid="true"
     showguides="true"
     inkscape:guide-bbox="true"
     inkscape:zoom="7.4167645"
     inkscape:cx="34.254476"
     inkscape:cy="48.918683"
     inkscape:window-x="0"
     inkscape:window-y="27"
     inkscape:window-maximized="1"
     inkscape:current-layer="text5418">
    <inkscape:grid
       type="xygrid"
       id="grid3816" />
  </sodipodi:namedview>
  <defs
     id="defs3142">
    <clipPath
       id="clipPath3776-0"
       clipPathUnits="userSpaceOnUse">
      <path
         id="path3778-8"
         style="color:#000000;fill:#f0f"
         d="m-9.1579-12.868v28.211h34.737v42.316h-34.737v42.316h104.21v-112.84l-104.21-0.003z" />
    </clipPath>
  </defs>
  <metadata
     id="metadata3145">
    <rdf:RDF>
      <cc:Work
         rdf:about="">
        <dc:format>image/svg+xml</dc:format>
        <dc:type
           rdf:resource="http://purl.org/dc/dcmitype/StillImage" />
        <dc:title></dc:title>
      </cc:Work>
    </rdf:RDF>
  </metadata>
  <g
     id="g3016">
    <g
       id="g4753"
       transform="matrix(1.1135455,0,0,1.1135455,-6.8911313,-6.1354552)">
      <g
         id="g5390">
        <rect
           style="fill:#808080;fill-opacity:1;fill-rule:nonzero;stroke:none"
           id="rect5422"
           width="90"
           height="90"
           x="-3.95118e-08"
           y="7.255494e-10"
           transform="matrix(0.89803246,0,0,0.89803246,6.1884596,5.5098379)" />
        <g
           style="font-size:126.97781372px;font-style:normal;font-variant:normal;font-weight:bold;font-stretch:normal;line-height:100%;letter-spacing:0px;word-spacing:0px;fill:#c3c1c1;fill-opacity:1;stroke:none;font-family:URW Bookman L;-inkscape-font-specification:URW Bookman L Bold"
           id="text5418">
          <path
             d="m 6.232084,2.71789 0,10.412181 2.5395563,0.253955 c 7.1107507,0.761867 8.6344917,2.539565 8.6344917,10.666137 l 0,43.807345 c 0,8.126572 -1.523741,9.904271 -8.6344917,10.666137 L 6.232084,78.7776 l 0,10.412181 50.791126,0 c 11.808924,0 17.268988,-1.015825 22.856006,-4.190268 7.364706,-4.317241 11.808937,-12.316856 11.808937,-21.205295 0,-10.285192 -5.714012,-17.776897 -15.999205,-21.078317 7.618661,-3.682353 12.18987,-10.539166 12.18987,-18.284805 0,-5.713996 -2.53956,-11.301029 -6.983779,-15.2373375 C 75.815931,4.6225618 67.943288,2.71789 54.483653,2.71789 l -48.251569,0 m 33.395165,34.410988 0,-15.745249 c 0,-2.539554 0.126978,-3.682358 0.634889,-4.444224 0.761866,-1.396754 4.444229,-2.158623 9.777292,-2.158623 10.285192,0 16.25316,4.317253 16.25316,11.554981 0,6.856795 -6.094946,10.793115 -16.507116,10.793115 l -10.158225,0 m 0,11.681958 10.539159,0 c 12.951724,0 18.411783,4.0633 18.411783,13.713604 0,9.650305 -6.729836,15.364316 -17.903872,15.364316 -4.95213,0 -8.761471,-0.888846 -10.031247,-2.285601 -0.761867,-0.888844 -1.015823,-1.904669 -1.015823,-4.190268 l 0,-22.602051"
             style=""
             id="path5425" />
        </g>
      </g>
    </g>
  </g>
  <rect
     id="rect2990"
     style="color:#000000;fill:none"
     height="90"
     width="90"
     y="-1.4648437e-05"
     x="0" />
  <g
     id="layer2"
     style="display:none">
    <path
       id="path3214-7"
       d="m4.7647 48h17.471c3.1765 0 4.7647 0 4.7647-3s-1.5882-3-4.7647-3h-17.471c-3.1768 0-4.765 0-4.765 3s1.5882 3 4.7647 3z"
       style="color:#000000;display:inline;fill:#808080" />
    <path
       id="path3216-2"
       style="color:#000000;display:inline;fill:#808080"
       d="m13.765 39h17.471c3.176 0 4.764 0 4.764-3s-1.588-3-4.765-3h-17.47c-3.177 0-4.765 0-4.765 3s1.588 3 4.765 3z" />
    <path
       id="path3218-4"
       d="m4.7647 30h17.471c3.1765 0 4.7647 0 4.7647-3s-1.5882-3-4.7647-3h-17.471c-3.1768 0-4.765 0-4.765 3s1.5882 3 4.7647 3z"
       style="color:#000000;display:inline;fill:#808080" />
    <rect
       id="rect2990-7"
       style="color:#000000;display:inline;fill:none"
       height="90"
       width="90"
       y="0.000003"
       x="0" />
    <path
       id="path2995-5"
       style="stroke-width:10.5;color:#000000;stroke:#808080;display:inline;fill:none"
       d="m69 36.5a33 33.5 0 1 1 -66 0 33 33.5 0 1 1 66 0z"
       clip-path="url(#clipPath3776-0)"
       transform="matrix(.86364 0 0 .85075 10.909 4.9478)" />
    <path
       id="path3765-1"
       style="block-progression:tb;text-indent:0;color:#000000;text-transform:none;display:inline;fill:#808080"
       d="m63.05 53.083-3.967 3.967 19.601 19.601 3.967-3.967-19.601-19.601z" />
    <path
       id="path3767-9"
       style="block-progression:tb;text-indent:0;color:#000000;text-transform:none;display:inline;fill:#808080"
       d="m71.329 59.841c-2.1681 0.0112-4.263 1.4327-5.0758 3.4441-0.8127 2.0114-0.29378 4.4904 1.2572 6.0063l11.872 11.881c3.7566 3.9893 4.5666 3.4509 7.9001 0.11742s3.8779-3.91-0.11734-7.9053l-11.872-11.88c-1.028-1.055-2.492-1.669-3.964-1.663z" />
  </g>
</svg>
