<?xml version="1.0" encoding="UTF-8" standalone="no"?>
<!-- Created with Inkscape (http://www.inkscape.org/) -->

<svg
   xmlns:dc="http://purl.org/dc/elements/1.1/"
   xmlns:cc="http://creativecommons.org/ns#"
   xmlns:rdf="http://www.w3.org/1999/02/22-rdf-syntax-ns#"
   xmlns:svg="http://www.w3.org/2000/svg"
   xmlns="http://www.w3.org/2000/svg"
   xmlns:sodipodi="http://sodipodi.sourceforge.net/DTD/sodipodi-0.dtd"
   xmlns:inkscape="http://www.inkscape.org/namespaces/inkscape"
   id="svg3140"
   height="90"
   width="90"
   version="1.1"
   inkscape:version="0.48.3.1 r9886"
   sodipodi:docname="error_cover.svg">
  <sodipodi:namedview
     pagecolor="#ffffff"
     bordercolor="#666666"
     borderopacity="1"
     objecttolerance="10"
     gridtolerance="10"
     guidetolerance="10"
     inkscape:pageopacity="0"
     inkscape:pageshadow="2"
     inkscape:window-width="1920"
     inkscape:window-height="1025"
     id="namedview24"
     showgrid="false"
     showguides="true"
     inkscape:guide-bbox="true"
     inkscape:zoom="7.4167645"
     inkscape:cx="20.655814"
     inkscape:cy="46.758232"
     inkscape:window-x="0"
     inkscape:window-y="27"
     inkscape:window-maximized="1"
     inkscape:current-layer="text4761" />
  <defs
     id="defs3142">
    <clipPath
       id="clipPath3776-0"
       clipPathUnits="userSpaceOnUse">
      <path
         id="path3778-8"
         style="color:#000000;fill:#f0f"
         d="m-9.1579-12.868v28.211h34.737v42.316h-34.737v42.316h104.21v-112.84l-104.21-0.003z" />
    </clipPath>
  </defs>
  <metadata
     id="metadata3145">
    <rdf:RDF>
      <cc:Work
         rdf:about="">
        <dc:format>image/svg+xml</dc:format>
        <dc:type
           rdf:resource="http://purl.org/dc/dcmitype/StillImage" />
        <dc:title />
      </cc:Work>
    </rdf:RDF>
  </metadata>
  <g
     id="g3016">
    <g
       style="font-size:120px;font-style:normal;font-variant:normal;font-weight:bold;font-stretch:normal;text-align:start;line-height:100%;letter-spacing:0px;word-spacing:0px;writing-mode:lr-tb;text-anchor:start;fill:#808080;fill-opacity:1;stroke:none;font-family:URW Bookman L;-inkscape-font-specification:URW Bookman L Bold"
       id="text4761">
      <path
         d="m 45,65.220001 c -6.119994,0 -11.16,4.920005 -11.16,10.8 0,6.359993 4.920006,11.4 11.04,11.4 6.119994,0 11.16,-5.040007 11.16,-11.16 0,-6.119994 -4.920006,-11.04 -11.04,-11.04 m 4.92,-5.28 c 0.839999,-11.519989 1.560002,-16.440012 4.2,-28.2 C 56.519997,21.660011 57,19.139997 57,15.780001 57,7.7400087 52.319993,2.5800006 45.12,2.5800006 38.280007,2.5800006 33,7.8600073 33,14.580001 c 0,3.959996 0.480002,6.840011 2.88,17.88 2.039998,9.23999 3.120001,16.320011 4.2,27.48 l 9.84,0"
         style=""
         id="path2996" />
    </g>
  </g>
  <rect
     id="rect2990"
     style="color:#000000;fill:none"
     height="90"
     width="90"
     y="-1.4648437e-05"
     x="0" />
  <g
     id="layer2"
     style="display:none">
    <path
       id="path3214-7"
       d="m4.7647 48h17.471c3.1765 0 4.7647 0 4.7647-3s-1.5882-3-4.7647-3h-17.471c-3.1768 0-4.765 0-4.765 3s1.5882 3 4.7647 3z"
       style="color:#000000;display:inline;fill:#808080" />
    <path
       id="path3216-2"
       style="color:#000000;display:inline;fill:#808080"
       d="m13.765 39h17.471c3.176 0 4.764 0 4.764-3s-1.588-3-4.765-3h-17.47c-3.177 0-4.765 0-4.765 3s1.588 3 4.765 3z" />
    <path
       id="path3218-4"
       d="m4.7647 30h17.471c3.1765 0 4.7647 0 4.7647-3s-1.5882-3-4.7647-3h-17.471c-3.1768 0-4.765 0-4.765 3s1.5882 3 4.7647 3z"
       style="color:#000000;display:inline;fill:#808080" />
    <rect
       id="rect2990-7"
       style="color:#000000;display:inline;fill:none"
       height="90"
       width="90"
       y="0.000003"
       x="0" />
    <path
       id="path2995-5"
       style="stroke-width:10.5;color:#000000;stroke:#808080;display:inline;fill:none"
       d="m69 36.5a33 33.5 0 1 1 -66 0 33 33.5 0 1 1 66 0z"
       clip-path="url(#clipPath3776-0)"
       transform="matrix(.86364 0 0 .85075 10.909 4.9478)" />
    <path
       id="path3765-1"
       style="block-progression:tb;text-indent:0;color:#000000;text-transform:none;display:inline;fill:#808080"
       d="m63.05 53.083-3.967 3.967 19.601 19.601 3.967-3.967-19.601-19.601z" />
    <path
       id="path3767-9"
       style="block-progression:tb;text-indent:0;color:#000000;text-transform:none;display:inline;fill:#808080"
       d="m71.329 59.841c-2.1681 0.0112-4.263 1.4327-5.0758 3.4441-0.8127 2.0114-0.29378 4.4904 1.2572 6.0063l11.872 11.881c3.7566 3.9893 4.5666 3.4509 7.9001 0.11742s3.8779-3.91-0.11734-7.9053l-11.872-11.88c-1.028-1.055-2.492-1.669-3.964-1.663z" />
  </g>
</svg>
